<?xml version="1.0" standalone="no"?>
<!DOCTYPE svg PUBLIC "-//W3C//DTD SVG 20010904//EN"
 "http://www.w3.org/TR/2001/REC-SVG-20010904/DTD/svg10.dtd">
<svg version="1.0" xmlns="http://www.w3.org/2000/svg"
 width="225.000000pt" height="225.000000pt" viewBox="0 0 225.000000 225.000000"
 preserveAspectRatio="xMidYMid meet">

<g transform="translate(0.000000,225.000000) scale(0.100000,-0.100000)"
fill="#000000" stroke="none">
<path d="M226 2005 c-3 -9 -6 -409 -6 -889 0 -665 3 -875 12 -884 9 -9 222
-12 899 -12 810 0 887 1 893 16 16 42 -1 44 -335 44 l-319 0 0 199 c0 164 -3
201 -15 211 -12 10 -18 10 -30 0 -12 -10 -15 -47 -15 -211 l0 -199 -325 0
-325 0 0 394 c0 338 -2 395 -15 406 -12 10 -18 10 -30 0 -13 -11 -15 -68 -15
-406 l0 -394 -160 0 -160 0 -2 868 -3 867 -21 3 c-13 2 -24 -4 -28 -13z"/>
<path d="M382 1774 c-40 -28 -38 -32 139 -354 76 -137 61 -124 242 -217 l87
-45 114 71 c63 39 118 71 123 71 6 0 54 -48 108 -106 54 -58 108 -112 121
-121 29 -18 34 -16 183 95 l113 84 147 -146 c150 -149 173 -163 205 -130 39
39 24 61 -157 242 -163 162 -176 172 -200 163 -14 -5 -78 -49 -142 -96 l-116
-87 -118 122 c-102 107 -120 122 -140 115 -13 -4 -74 -39 -135 -77 l-111 -70
-85 45 -85 45 -105 190 c-58 104 -111 197 -119 206 -17 20 -40 20 -69 0z"/>
</g>
</svg>
